<svg xmlns="http://www.w3.org/2000/svg" width="20" height="22" viewBox="0 0 20 22">
    <g fill="#0A0A0A">
        <path d="M12.236 19H7.764c-.127 0-.234.096-.248.222-.01.092-.016.185-.016.278 0 1.38 1.12 2.5 2.5 2.5s2.5-1.12 2.5-2.5c0-.093-.005-.186-.016-.278-.013-.127-.12-.223-.248-.222z"/>
        <path d="M19.446 19.276c-1.145-2.275-1.742-4.785-1.746-7.332v-.768c.056-3.025-1.392-5.88-3.866-7.622-.71-.457-1.503-.77-2.334-.918V1.5C11.5.672 10.828 0 10 0S8.5.672 8.5 1.5v1.149c-1.037.196-2.014.634-2.851 1.277-2.162 1.78-3.394 4.45-3.349 7.25v.768c-.004 2.547-.601 5.057-1.746 7.332-.078.155-.07.339.021.486C.666 19.91.827 20 1 20h18c.173 0 .334-.09.425-.238.091-.148.1-.332.021-.487v.001z"/>
    </g>
</svg>
